<svg width="19" height="21" viewBox="0 0 19 21" fill="none" xmlns="http://www.w3.org/2000/svg">
<path d="M17.2093 7.85714C17.2093 8.32589 16.8209 8.71428 16.3521 8.71428C15.8834 8.71428 15.495 8.32589 15.495 7.85714C15.495 7.38839 15.8834 7 16.3521 7C16.8209 7 17.2093 7.38839 17.2093 7.85714ZM18.9236 7.85714C18.9236 6.4375 17.7718 5.28571 16.3521 5.28571C14.9325 5.28571 13.7807 6.4375 13.7807 7.85714C13.7807 8.98214 14.4905 9.91964 15.495 10.2812V15.5714C15.495 17.4598 13.5664 19 11.2093 19C8.85212 19 6.92355 17.4598 6.92355 15.5714V13.8036C9.8298 13.442 12.0664 11.2991 12.0664 8.71428V1.85714C12.0664 1.38839 11.678 0.999999 11.2093 0.999999C11.1289 0.999999 11.0619 1.01339 10.995 1.02678C10.7003 0.504464 10.1378 0.142856 9.49498 0.142856C8.54409 0.142856 7.78069 0.906249 7.78069 1.85714C7.78069 2.80803 8.54409 3.57143 9.49498 3.57143C9.80301 3.57143 10.0977 3.47768 10.3521 3.33036V8.71428C10.3521 10.6027 8.42355 12.1429 6.06641 12.1429C3.70926 12.1429 1.78069 10.6027 1.78069 8.71428V3.33036C2.03516 3.47768 2.3298 3.57143 2.63784 3.57143C3.58873 3.57143 4.35212 2.80803 4.35212 1.85714C4.35212 0.906249 3.58873 0.142856 2.63784 0.142856C1.99498 0.142856 1.43248 0.504464 1.13783 1.02678C1.07087 1.01339 1.00391 0.999999 0.923549 0.999999C0.454799 0.999999 0.0664062 1.38839 0.0664062 1.85714V8.71428C0.0664062 11.2991 2.30301 13.442 5.20926 13.8036V15.5714C5.20926 18.4107 7.90123 20.7143 11.2093 20.7143C14.5173 20.7143 17.2093 18.4107 17.2093 15.5714V10.2812C18.2137 9.91964 18.9236 8.98214 18.9236 7.85714Z" fill="#FFB200"/>
</svg>
