<svg width="24" height="21" viewBox="0 0 24 21" fill="none" xmlns="http://www.w3.org/2000/svg">
<path d="M22.8064 4.83036C22.6055 4.5625 22.3242 4.375 22.0162 4.25446C22.0296 4.49553 22.0296 4.76339 21.9492 5.01786L17.9314 18.2366C17.784 18.7187 17.2081 19 16.7126 19H4.351C3.6144 19 2.69029 18.8393 2.42243 18.0625C2.31529 17.7679 2.32868 17.6473 2.43583 17.4866C2.55636 17.3259 2.77065 17.2857 2.94475 17.2857H14.5831C16.284 17.2857 16.6323 16.8304 17.2617 14.7679L20.9314 2.63393C21.1189 2.00446 21.0385 1.375 20.6903 0.892856C20.3555 0.424106 19.793 0.142856 19.1635 0.142856H8.97154C8.74386 0.142856 8.51618 0.209821 8.28851 0.263392L8.3019 0.223214C6.601 -0.258929 6.49386 1.57589 5.93136 2.40625C5.71708 2.71428 5.39565 2.98214 5.34208 3.23661C5.3019 3.47768 5.43583 3.70536 5.40904 3.93303C5.32868 4.64286 4.79297 5.91518 4.47154 6.35714C4.27065 6.625 3.976 6.75893 3.88225 7.06696C3.8019 7.28125 3.93583 7.58928 3.90904 7.87053C3.84208 8.5 3.37333 9.69196 3.01172 10.308C2.87779 10.5491 2.62333 10.7366 2.55636 10.9911C2.4894 11.2188 2.62333 11.5134 2.55636 11.7679C2.40904 12.4643 1.95368 13.5491 1.5519 14.2187C1.33761 14.5804 1.05636 14.808 1.00279 15.1295C0.976004 15.2902 1.09654 15.4643 1.08315 15.6786C1.06975 16 1.01618 16.2679 0.989397 16.5357C0.801897 17.0446 0.801897 17.6339 1.01618 18.2366C1.51172 19.6295 2.97154 20.7143 4.33761 20.7143H16.6992C17.851 20.7143 19.0296 19.8304 19.3644 18.692L23.0474 6.55803C23.2349 5.94196 23.1412 5.3125 22.8064 4.83036ZM8.55636 4.85714L8.83761 4C8.91797 3.75893 9.17243 3.57143 9.40011 3.57143H17.543C17.784 3.57143 17.918 3.75893 17.8376 4L17.5564 4.85714C17.476 5.09821 17.2215 5.28571 16.9939 5.28571H8.85101C8.60993 5.28571 8.47601 5.09821 8.55636 4.85714ZM7.44476 8.28571L7.72601 7.42857C7.80636 7.1875 8.06083 7 8.28851 7H16.4314C16.6724 7 16.8064 7.1875 16.726 7.42857L16.4448 8.28571C16.3644 8.52678 16.1099 8.71428 15.8823 8.71428H7.7394C7.49833 8.71428 7.3644 8.52678 7.44476 8.28571Z" fill="#FFB200"/>
</svg>
