<svg width="32" height="21" viewBox="0 0 32 21" fill="none" xmlns="http://www.w3.org/2000/svg">
<path d="M24.3253 9.625L16.6378 12.0491C16.4236 12.1161 16.2093 12.1429 15.995 12.1429C15.7807 12.1429 15.5664 12.1161 15.3521 12.0491L7.66462 9.625L7.42355 13.8571C7.31641 15.7455 11.2673 17.2857 15.995 17.2857C20.7227 17.2857 24.6736 15.7455 24.5664 13.8571L24.3253 9.625ZM31.4236 5.28571C31.4236 5.09821 31.303 4.9375 31.1289 4.87053L16.1289 0.156249C16.0753 0.142856 16.0352 0.142856 15.995 0.142856C15.9548 0.142856 15.9146 0.142856 15.8611 0.156249L0.861049 4.87053C0.686942 4.9375 0.566406 5.09821 0.566406 5.28571C0.566406 5.47321 0.686942 5.63393 0.861049 5.70089L5.32087 7.09375C4.49051 8.25893 4.08873 9.94643 4.00837 11.5134C3.49944 11.808 3.13784 12.3571 3.13784 13C3.13784 13.6027 3.44587 14.125 3.91462 14.433L3.13784 20.2321C3.12444 20.3527 3.16462 20.4732 3.24498 20.567C3.32534 20.6607 3.44587 20.7143 3.56641 20.7143H6.13784C6.25837 20.7143 6.37891 20.6607 6.45926 20.567C6.53962 20.4732 6.5798 20.3527 6.56641 20.2321L5.78962 14.433C6.25837 14.125 6.56641 13.6027 6.56641 13C6.56641 12.3705 6.23159 11.8348 5.72266 11.5402C5.8298 9.73214 6.36551 8.25893 7.12891 7.65625L15.8611 10.4152C15.9146 10.4286 15.9548 10.4286 15.995 10.4286C16.0352 10.4286 16.0753 10.4286 16.1289 10.4152L31.1289 5.70089C31.303 5.63393 31.4236 5.47321 31.4236 5.28571Z" fill="#FFB200"/>
</svg>
