<svg width="30" height="50" viewBox="0 0 30 50" fill="none" xmlns="http://www.w3.org/2000/svg">
<path d="M13.692 48.4983C14.2486 48.9433 14.6939 49.3882 15.0278 50C15.3618 49.4438 15.807 48.9433 16.3636 48.4983C19.2579 46.3293 21.039 43.2703 21.6512 39.9889H30V3.72636C25.7143 6.06229 22.5417 10.4004 21.9295 15.6841L20.6493 26.307C21.9852 25.9733 23.321 26.8632 23.6549 28.198C23.9889 29.5328 23.0983 30.8676 21.7625 31.2013L20.2597 31.535C17.6994 27.475 16.1967 22.6363 16.1967 17.5195L16.8089 4.94994C16.8089 3.05895 16.0853 1.33482 14.9165 0C13.7477 1.33482 13.0241 3.05895 13.0241 4.94994L13.6364 17.5195C13.6364 22.6919 12.1336 27.475 9.57328 31.535L8.0705 31.2013C6.73469 30.8676 5.89981 29.5328 6.17811 28.198C6.51206 26.8632 7.84787 26.0289 9.18367 26.307L7.90353 15.6841C7.45826 10.4004 4.28571 6.06229 0 3.72636V39.9889H8.34879C8.96104 43.2703 10.7978 46.3293 13.692 48.4983ZM23.4879 24.2492L24.4898 15.9066C24.8237 13.2369 25.9369 10.7898 27.551 8.89878V27.475H26.1596C25.7699 26.0289 24.7681 24.861 23.4879 24.2492ZM22.3748 33.5929C24.2672 33.1479 25.6586 31.7019 26.1039 29.9778H27.4954V37.4861H21.9295C21.9295 36.2069 21.7625 34.9833 21.4286 33.8154L22.3748 33.5929ZM13.8033 45.2725C12.4119 43.8265 11.41 41.9911 10.9647 39.9889H13.8033V45.2725ZM16.2523 45.2725V39.9889H19.0909C18.6456 41.9911 17.6438 43.8265 16.2523 45.2725ZM19.4249 37.4861H16.308C16.308 35.9288 17.4768 34.594 18.9796 34.3715C19.2579 35.3726 19.4249 36.4294 19.4249 37.4861ZM15.0278 25.8621C15.6957 28.0311 16.6419 30.1446 17.7551 32.0912C16.6419 32.4249 15.6957 33.0923 15.0278 33.9266C14.3043 33.0367 13.3581 32.4249 12.3006 32.0912C13.4137 30.1446 14.3599 28.0868 15.0278 25.8621ZM11.0761 34.3715C12.5788 34.594 13.7477 35.8732 13.7477 37.4861H10.6308C10.6308 36.4294 10.7978 35.3726 11.0761 34.3715ZM2.50464 8.89878C4.1744 10.7898 5.23191 13.2369 5.56586 15.9066L6.56772 24.2492C5.28757 24.861 4.28571 26.0845 3.8961 27.475H2.50464V8.89878ZM2.50464 37.4861V29.9778H3.8961C4.34137 31.7575 5.73284 33.2036 7.62523 33.5929L8.62709 33.8154C8.29313 34.9833 8.12616 36.2069 8.12616 37.4861H2.50464Z" fill="#333333"/>
</svg>
